<svg xmlns="http://www.w3.org/2000/svg" xmlns:xlink="http://www.w3.org/1999/xlink" version="1.1" id="Layer_1" x="0px" y="0px" viewBox="0 0 16.1 12.1" style="enable-background:new 0 0 16.1 12.1;" xml:space="preserve">
<style type="text/css">
	.st0{fill:#525C66;}
</style>
<path class="st0" d="M15.8,5.4l-5.2-5.2c-0.3-0.4-0.9-0.4-1.3-0.1C9,0.5,8.9,1,9.3,1.4c0,0,0.1,0.1,0.1,0.1L13,5.2H0.9  C0.4,5.1,0,5.5-0.1,6c0,0.5,0.3,0.9,0.8,1c0.1,0,0.1,0,0.2,0H13l-3.6,3.6c-0.4,0.3-0.4,0.9,0,1.3c0,0,0,0,0,0  c0.2,0.2,0.4,0.3,0.6,0.3c0.2,0,0.5-0.1,0.6-0.3l5.2-5.2C16,6.5,16.1,6.3,16.1,6C16.1,5.8,16,5.6,15.8,5.4L15.8,5.4z"/>
</svg>