<svg xmlns="http://www.w3.org/2000/svg" width="33.884" height="45.75" viewBox="0 0 33.884 45.75">
  <g id="articles" transform="translate(-22.039 -12.246)">
    <path id="Path_669" data-name="Path 669" d="M42.072,12.74a1.844,1.844,0,0,0-1.235-.495H27.6a5.564,5.564,0,0,0-5.564,5.564V52.431A5.564,5.564,0,0,0,27.6,58H50.358a5.564,5.564,0,0,0,5.564-5.564V26.589a1.67,1.67,0,0,0-.559-1.3Zm.618,5.687,6.741,6.3H43.309a.551.551,0,0,1-.459-.159.56.56,0,0,1-.161-.459Zm7.668,35.859H27.6a1.79,1.79,0,0,1-1.853-1.856V17.81A1.79,1.79,0,0,1,27.6,15.954H38.98v8.161a4.329,4.329,0,0,0,4.329,4.329h8.9V52.431a1.79,1.79,0,0,1-1.853,1.856Z" fill="#929ca6"/>
    <path id="Path_670" data-name="Path 670" d="M52.188,56.429H32.466a1.79,1.79,0,0,0-1.853,1.853,1.855,1.855,0,0,0,1.853,1.856H52.188a1.916,1.916,0,0,0,1.856-1.856,1.855,1.855,0,0,0-1.856-1.853Z" transform="translate(-3.378 -17.413)" fill="#929ca6"/>
    <path id="Path_671" data-name="Path 671" d="M32.466,47.892H42.915a1.916,1.916,0,0,0,1.856-1.853,1.856,1.856,0,0,0-1.856-1.856H32.466a1.79,1.79,0,0,0-1.853,1.856,1.853,1.853,0,0,0,1.853,1.853Z" transform="translate(-3.378 -12.586)" fill="#929ca6"/>
    <path id="Path_672" data-name="Path 672" d="M52.188,68.671H32.466a1.794,1.794,0,0,0-1.853,1.856,1.855,1.855,0,0,0,1.853,1.856H52.188a1.916,1.916,0,0,0,1.856-1.856,1.856,1.856,0,0,0-1.856-1.856Z" transform="translate(-3.378 -22.237)" fill="#929ca6"/>
  </g>
</svg>
