<svg xmlns="http://www.w3.org/2000/svg" width="52.327" height="45.471" viewBox="0 0 52.327 45.471">
  <path id="company" d="M489.037,494.232H477.231v25.035h11.806Zm-10.044,3.714a1.64,1.64,0,0,1,3.279,0V500.4a1.64,1.64,0,0,1-3.279,0Zm5.007,0a1.64,1.64,0,0,1,3.279,0V500.4a1.64,1.64,0,0,1-3.279,0Zm-5.007,7.572a1.64,1.64,0,0,1,3.279,0v2.458a1.64,1.64,0,0,1-3.279,0Zm5.007,0a1.64,1.64,0,0,1,3.279,0v2.458a1.64,1.64,0,0,1-3.279,0Zm-5.007,7.572a1.64,1.64,0,0,1,3.279,0v2.458a1.64,1.64,0,0,1-3.279,0Zm5.007,0a1.64,1.64,0,0,1,3.279,0v2.458a1.64,1.64,0,0,1-3.279,0Zm28.957-15.145a1.64,1.64,0,0,1,3.279,0V500.4a1.64,1.64,0,0,1-3.279,0Zm5.007,0a1.64,1.64,0,0,1,3.279,0V500.4a1.64,1.64,0,0,1-3.279,0Zm-5.007,7.573a1.64,1.64,0,0,1,3.279,0v2.458a1.64,1.64,0,0,1-3.279,0Zm5.007,0a1.64,1.64,0,0,1,3.279,0v2.458a1.64,1.64,0,0,1-3.279,0Zm-5.007,7.572a1.64,1.64,0,0,1,3.279,0v2.458a1.64,1.64,0,0,1-3.279,0Zm5.007,0a1.64,1.64,0,0,1,3.279,0v2.458a1.64,1.64,0,0,1-3.279,0ZM504.6,501.234a2,2,0,0,1,2,2v16.03h1.317V480.349h-15.6v38.915h1.318v-16.03a2,2,0,0,1,2-2Zm-1.279,3.279h-6.409v14.753h6.409Zm7.875-13.561h13.087a2,2,0,0,1,2,2v29.592H473.958V492.952a2,2,0,0,1,2-2h13.087V479.073a2,2,0,0,1,2-2H509.2a2,2,0,0,1,2,2Zm11.808,3.279H511.2v25.035h11.808Z" transform="translate(-473.958 -477.073)" fill="#929ca6"/>
</svg>
