<svg xmlns="http://www.w3.org/2000/svg" width="44.093" height="44.093" viewBox="0 0 44.093 44.093">
  <path id="services" d="M591.292,478.541,580,489.833,568.708,478.54a2.005,2.005,0,0,0-2.835,0l-7.332,7.332a2.005,2.005,0,0,0,0,2.835L569.833,500l-10.167,10.166-.995,8.951a2,2,0,0,0,2.211,2.211l8.951-.995L580,510.167l11.291,11.292a2,2,0,0,0,2.835,0l7.332-7.332a2,2,0,0,0,0-2.835L590.167,500l11.293-11.293a2.005,2.005,0,0,0,0-2.835l-7.332-7.332A2,2,0,0,0,591.292,478.541Zm-22.221,15.307-2.033-2.033,2.386-2.391-1.78-1.78-2.389,2.39-2.741-2.743,4.778-4.778,10.014,10.011-4.782,4.781-1.626-1.626,2.389-2.389-1.779-1.779Zm-6.355,23.437.457-4.321,3.864,3.86Zm34.77-4.576-4.778,4.778-2.743-2.744,2.389-2.389-1.779-1.779-2.442,2.336-2.033-2.033,2.389-2.389-1.779-1.779-2.386,2.39-1.626-1.626,4.778-4.778Zm-28.162,2.745-4.778-4.778,22.369-22.368,4.778,4.778Zm19.37-28.925,4.014-4.015,4.778,4.778-4.014,4.015Z" transform="translate(-557.954 -477.954)" fill="#929ca6"/>
</svg>
